PathFileType	4	(X/Y/Z)	19_2_53_p0_0-323.trc
DataRate	CameraRate	NumFrames	NumMarkers	Units	OrigDataRate	OrigDataStartFrame	OrigNumFrames
60.0	60.0	5	27	m	60.0	162	324
Frame#	Time	RHip			RKnee			RAnkle			RBigToe			RSmallToe			RHeel			LHip			LKnee			LAnkle			LBigToe			LSmallToe			LHeel			Neck			Head			Nose			RShoulder			RElbow			RWrist			RThumb			RIndex			RPinky			LShoulder			LElbow			LWrist			LThumb			LIndex			LPinky			
		X1	Y1	Z1	X2	Y2	Z2	X3	Y3	Z3	X4	Y4	Z4	X5	Y5	Z5	X6	Y6	Z6	X7	Y7	Z7	X8	Y8	Z8	X9	Y9	Z9	X10	Y10	Z10	X11	Y11	Z11	X12	Y12	Z12	X13	Y13	Z13	X14	Y14	Z14	X15	Y15	Z15	X16	Y16	Z16	X17	Y17	Z17	X18	Y18	Z18	X19	Y19	Z19	X20	Y20	Z20	X21	Y21	Z21	X22	Y22	Z22	X23	Y23	Z23	X24	Y24	Z24	X25	Y25	Z25	X26	Y26	Z26	X27	Y27	Z27	
162	2.7	0.309268437384411	0.533120154254076	0.9058137236867787	0.27684402783011824	0.48783753103731664	1.2957301253480207	0.28360891212650263	0.5906698940661786	1.7360029428129702	0.2788537196136206	0.3967944962408858	1.7370985324465045	0.34849560227936616	0.41100885935234294	1.732851329520696	0.24682550934819894	0.6713587384693909	1.816562512787391	0.09724041955787079	0.5244313486361326	0.9036443583888998	0.10667309326242243	0.4799268402922474	1.2864857425880327	0.08556707792899308	0.5505068515504857	1.7246609826823518	0.10784596012470946	0.33051051089057826	1.709282160480589	0.04730093252913838	0.3927897328761149	1.7370857086387044	0.11294436574112876	0.6256432533218368	1.805896652829681	0.20439968151225196	0.4288501761616881	0.362211808601263	0.23310824884808107	0.3117699287218935	0.08708400978739768	0.2361292457372842	0.2968757770342879	0.2590096345248423	0.366471564128684	0.4164972300120608	0.39871375230680683	0.3746746433348322	0.3926848607009474	0.625077443487175	0.30840744335682485	0.1274202834815101	0.5997493471219968	0.26911441112143203	0.03448041629676709	0.5681020630833828	0.2717998211862469	-0.006379649106469797	0.5802523461382072	0.25696194306921066	0.04972090413881185	0.6191338369047307	0.04424457006222517	0.44737428147131514	0.4126012757071951	0.02348199479515286	0.4569596806365686	0.6750104370390462	0.10643965168964999	0.3219204380626082	0.8189546749268942	0.18723850348769933	0.29448788277378485	0.8921571577507306	0.18004992424045058	0.25733071252793793	0.9147668471852791	0.14014081156976715	0.25082571953411315	0.904746702934482
163	2.716666666666667	0.3141687471150877	0.5333204740382085	0.9058110092412498	0.27685697375437596	0.48780190022953696	1.2956788418909941	0.2835871892676923	0.5906586213372029	1.7360011033118943	0.2788996727449808	0.39681682258946444	1.7370399179797802	0.34797276580022074	0.41281690784171415	1.728595435983168	0.24685704593155602	0.6721127615612682	1.8170970828571211	0.10232890928767804	0.5242851165798991	0.9033837290573045	0.107553378878875	0.4797942445823418	1.2822465080170997	0.08561205008296723	0.5504895873587763	1.7245819491205938	0.10887344800435908	0.33027551083977225	1.70514415110909	0.0484724916573832	0.3925945065825791	1.7328791522864124	0.11299434794111202	0.6251949403931021	1.805855899296513	0.20456048110519254	0.4293665487548029	0.3586166374070167	0.23303329600735043	0.3112449225835288	0.08707110940816597	0.23355289965663725	0.28770044022348046	0.2547266737851232	0.3704046628158898	0.4180667708032737	0.3951233480325232	0.37161553897812416	0.3825901142216562	0.6153780768295108	0.311154833735544	0.13625212718374888	0.5785018714861068	0.28226573590235243	0.025967092784092215	0.5485281060370806	0.2743316876935633	-0.006747166943326838	0.5697330041634965	0.26711268857204473	0.0420085893462449	0.6056751826770992	0.049623099432747335	0.4363822098587233	0.41027066160579767	0.023172586982670725	0.4559674803342345	0.6710760550664686	0.10645495746743734	0.3217128461007162	0.8187313585881819	0.18682241599100075	0.29262259232771914	0.8880536581875658	0.18289725169828053	0.23677436366524554	0.8950648383191901	0.14205092283209506	0.26006686197603385	0.9080506186471357
164	2.7333333333333334	0.3133872627164433	0.5341071781581453	0.9060113347678693	0.27684994988268646	0.4878475098499767	1.29577011733808	0.2808577974354793	0.5767285150663005	1.7274019588748444	0.27920104364861437	0.3973999757929672	1.7377843739698746	0.35056254088182737	0.42360816651160355	1.7359067861089983	0.2465251853766817	0.6708957011246309	1.816047085237569	0.10141303254478967	0.5253067179105816	0.9038180429001503	0.10036815129807028	0.49337862790834514	1.2934647752249342	0.08441902750410221	0.5505676190895246	1.729407931048788	0.11449664456068528	0.31803605315559885	1.696246699278061	0.054725921412111855	0.38028974046374614	1.7239867976028125	0.112949421589569	0.6251022268893486	1.805751829245734	0.20197732947461808	0.41850988075102274	0.35671776586741233	0.23299427403413023	0.31101255017910673	0.08701322536910587	0.23350850712449261	0.28778668429315873	0.2547074305383144	0.3664073213772584	0.41737544490289563	0.3951180809008905	0.36688262544073547	0.38117913895008004	0.6219824188303197	0.3106885900973429	0.1465483997535939	0.5777802943084144	0.2818844694398189	0.03529254894283065	0.5359243721668084	0.2793665343178809	0.006085372741273557	0.5567190297890935	0.27017097843185794	0.05054314449881442	0.6045418766880486	0.04423398883780218	0.44757058598174354	0.41263514583152294	0.019469204207856868	0.4538331625713408	0.6741880518783171	0.10693436221637322	0.3220669483070816	0.8154549722434412	0.1912627465423933	0.28019173173219025	0.8798964294290231	0.18377176077113203	0.23686113718413018	0.8985416838749551	0.14273234308863694	0.2607285098255277	0.912491210229458
165	2.75	0.31366063528870736	0.5331946245995015	0.9096588984692079	0.2768388552352457	0.4879452047585219	1.2958743602742342	0.28077787952264	0.5769730871968556	1.7276232472599156	0.27902434499533435	0.39690756962419077	1.7369305743454535	0.34815198300327316	0.4132535825909462	1.7285564714315627	0.24624054236440554	0.670928695898681	1.8159711188021614	0.10172051126103313	0.5241438760915546	0.9074330060228009	0.1066599542731075	0.47996103338708823	1.2863842266097376	0.08448702702477177	0.5504520357591279	1.7294439938473658	0.11454946961445682	0.3174999866240452	1.6959406469217435	0.054800457685567384	0.37980951153556913	1.723704286716474	0.1119594363778536	0.6252576819574269	1.8115974135642718	0.20181426240478179	0.4191454353405574	0.35358000063854855	0.23293777575504565	0.31163329288175085	0.08395334589535507	0.23349242285413968	0.2877553660524224	0.2546691486710876	0.36631354844129344	0.4168813750260404	0.39811343441602076	0.3661386160636687	0.3941446133936141	0.6255870267258835	0.31134529042453196	0.15973658547638	0.5812888155522612	0.28404637488009055	0.044247393391959544	0.5383756089839055	0.28552857716134317	0.01579575826229703	0.5622617612504498	0.28277141539487083	0.04467469292587436	0.6024431862840016	0.044440925787859596	0.4478716747054605	0.4097510523448199	0.01911803181279065	0.45284338424886694	0.6704003083520965	0.10692568186951698	0.32198588578284004	0.8154213732794002	0.19139760971004346	0.2800764367990245	0.8795410517609882	0.19101865260679246	0.23752197825848198	0.8908289572949978	0.14248335067469672	0.2597654069182306	0.908013146904997
166	2.7666666666666666	0.31420350983031076	0.5319224998591149	0.9132922538906314	0.27684761162741445	0.487994439093168	1.2958909824012568	0.28076019429216	0.5769605565838325	1.7276144727976133	0.27896462684161477	0.3967969932845858	1.7370110580571796	0.34800426850178817	0.4127810576889559	1.7285466924738846	0.24640262062992727	0.6710586166649634	1.8161940146996247	0.10181523847555574	0.5241536767423927	0.9071883875125255	0.10040724954380455	0.4933497250239997	1.2934611871191606	0.08446663066454889	0.5505032822432504	1.729535395402709	0.11440239166825139	0.31779215902916735	1.6960644224763821	0.05466625647276221	0.379906598329667	1.7237409981032474	0.1119225724553203	0.6254302435187036	1.8114096591837754	0.20181162610464762	0.41936240468388536	0.35347492467349945	0.2327433320066115	0.31171475532141857	0.08398651172384132	0.23344742633808319	0.2877969327376353	0.25457577274286924	0.36626051709198104	0.4170883636037123	0.39792179365325775	0.36934528974789327	0.396275757379038	0.6194026575420617	0.32261828739066223	0.16107831254178914	0.5777984624610957	0.288206372831218	0.04572193387232622	0.5423333308979283	0.2925921108637081	0.025299129082601842	0.571188962945553	0.2959470277638839	0.041871804397941574	0.6007777687601443	0.044157438070281864	0.4477132464533388	0.4126598189528019	0.019474766316499373	0.4540970859425145	0.6745136831615198	0.1070091833674507	0.3219032545806675	0.8154977000939203	0.19663201982527223	0.2674045605408083	0.8709152246338394	0.19410889900511832	0.21622346052345068	0.8826021906224484	0.14260788459475762	0.26076591252942616	0.9055622946964611
